<?xml version="1.0" encoding="utf-8"?>
<!-- Generator: Adobe Illustrator 16.0.0, SVG Export Plug-In . SVG Version: 6.00 Build 0)  -->
<!DOCTYPE svg PUBLIC "-//W3C//DTD SVG 1.1//EN" "http://www.w3.org/Graphics/SVG/1.1/DTD/svg11.dtd">
<svg version="1.1" id="图层_1" xmlns="http://www.w3.org/2000/svg" xmlns:xlink="http://www.w3.org/1999/xlink" x="0px" y="0px" viewBox="0 0 427.3 100.4" enable-background="new 0 0 427.3 100.4" xml:space="preserve">
<path fill-rule="evenodd" clip-rule="evenodd" fill="#46483E" d="M127.987,52.994c0-1.084-0.57-2.08-1.506-2.617l-24.937-14.352
  c-0.422-0.248-0.895-0.377-1.373-0.396h-0.258c-0.477,0.019-0.949,0.148-1.377,0.396L73.598,50.377
  c-0.929,0.537-1.508,1.533-1.508,2.617l0.055,38.644c0,0.538,0.279,1.038,0.752,1.301c0.463,0.278,1.035,0.278,1.496,0l14.821-8.485
  c0.937-0.558,1.507-1.539,1.507-2.613V63.784c0-1.076,0.571-2.071,1.504-2.606l6.311-3.636c0.47-0.271,0.984-0.404,1.51-0.404
  c0.513,0,1.041,0.133,1.498,0.404l6.308,3.636c0.934,0.535,1.506,1.53,1.506,2.606V81.84c0,1.074,0.578,2.062,1.51,2.613
  l14.816,8.485c0.465,0.278,1.045,0.278,1.506,0c0.459-0.263,0.748-0.763,0.748-1.301L127.987,52.994z"/>
<path fill-rule="evenodd" clip-rule="evenodd" fill="#46483E" d="M261.147-0.129c-0.467-0.26-1.037-0.254-1.498,0.016
  c-0.46,0.271-0.743,0.765-0.743,1.299v38.271c0,0.376-0.201,0.724-0.525,0.913c-0.326,0.188-0.729,0.188-1.056,0l-6.246-3.599
  c-0.932-0.537-2.077-0.536-3.01,0.001L223.122,51.17c-0.933,0.537-1.506,1.532-1.506,2.607v28.801c0,1.076,0.573,2.07,1.505,2.609
  l24.946,14.408c0.934,0.539,2.081,0.539,3.014,0l24.95-14.408c0.933-0.539,1.506-1.533,1.506-2.609V10.786
  c0-1.092-0.591-2.099-1.545-2.631L261.147-0.129z M258.833,73.115c0,0.27-0.145,0.519-0.378,0.651l-8.564,4.938
  c-0.233,0.135-0.521,0.135-0.752,0l-8.566-4.938c-0.232-0.133-0.377-0.382-0.377-0.651v-9.891c0-0.269,0.145-0.517,0.376-0.651
  l8.566-4.947c0.232-0.135,0.52-0.135,0.754,0l8.564,4.947c0.232,0.135,0.377,0.383,0.377,0.651V73.115z"/>
<path fill-rule="evenodd" clip-rule="evenodd" fill="#46483E" d="M350.4,62.966c0.928-0.539,1.499-1.531,1.499-2.604v-6.979
  c0-1.073-0.571-2.066-1.5-2.605l-24.787-14.392c-0.934-0.542-2.084-0.543-3.02-0.004l-24.938,14.397
  c-0.933,0.539-1.506,1.533-1.506,2.609v28.793c0,1.083,0.58,2.081,1.521,2.616l24.783,14.122c0.914,0.522,2.034,0.527,2.954,0.018
  l14.989-8.332c0.477-0.266,0.772-0.765,0.774-1.308c0.004-0.543-0.285-1.046-0.755-1.315L315.32,73.576
  c-0.47-0.268-0.758-0.767-0.758-1.306v-9.024c0-0.538,0.287-1.036,0.755-1.304l7.811-4.504c0.464-0.268,1.039-0.268,1.503,0
  l7.815,4.504c0.467,0.268,0.754,0.766,0.754,1.304v7.101c0,0.538,0.288,1.036,0.755,1.306c0.467,0.269,1.042,0.267,1.508-0.003
  L350.4,62.966z"/>
<path fill-rule="evenodd" clip-rule="evenodd" fill="#80bd01" d="M173.35,36.23c0.932-0.538,2.08-0.538,3.012,0l24.943,14.395
  c0.934,0.537,1.508,1.532,1.508,2.609v28.811c0,1.077-0.574,2.071-1.506,2.61l-24.944,14.405c-0.933,0.538-2.081,0.538-3.014,0
  l-24.938-14.405c-0.932-0.539-1.506-1.533-1.506-2.61V53.233c0-1.076,0.574-2.071,1.507-2.608L173.35,36.23z"/>
<path fill="#80bd01" d="M398.833,99.472c-0.859,0-1.716-0.225-2.468-0.66l-7.853-4.646c-1.172-0.656-0.601-0.888-0.213-1.023
  c1.563-0.543,1.881-0.668,3.551-1.614c0.173-0.099,0.404-0.062,0.584,0.045l6.033,3.582c0.219,0.121,0.526,0.121,0.728,0
  l23.522-13.577c0.219-0.125,0.358-0.376,0.358-0.636V53.796c0-0.265-0.14-0.513-0.364-0.647l-23.513-13.565
  c-0.217-0.127-0.506-0.127-0.724,0L374.97,53.152c-0.229,0.131-0.373,0.386-0.373,0.644v27.146c0,0.26,0.144,0.506,0.371,0.629
  l6.442,3.722c3.496,1.748,5.638-0.31,5.638-2.379v-26.8c0-0.379,0.305-0.678,0.683-0.678h2.983c0.373,0,0.682,0.299,0.682,0.678
  v26.8c0,4.666-2.541,7.342-6.965,7.342c-1.36,0-2.43,0-5.418-1.472l-6.168-3.551c-1.524-0.882-2.467-2.528-2.467-4.291V53.796
  c0-1.763,0.942-3.41,2.467-4.287l23.521-13.592c1.489-0.841,3.468-0.841,4.944,0l23.519,13.592c1.524,0.882,2.472,2.524,2.472,4.287
  v27.146c0,1.763-0.947,3.403-2.472,4.291L401.31,98.812C400.558,99.247,399.703,99.472,398.833,99.472"/>
<path fill="#80bd01" d="M406.099,80.771c-10.294,0-12.449-4.725-12.449-8.687c0-0.377,0.303-0.678,0.68-0.678h3.041
  c0.339,0,0.623,0.243,0.675,0.575c0.459,3.097,1.828,4.658,8.054,4.658c4.954,0,7.064-1.121,7.064-3.75
  c0-1.515-0.598-2.64-8.299-3.394c-6.437-0.638-10.416-2.06-10.416-7.208c0-4.745,4-7.576,10.707-7.576
  c7.535,0,11.263,2.615,11.736,8.227c0.018,0.193-0.052,0.379-0.181,0.523c-0.129,0.135-0.308,0.217-0.498,0.217h-3.052
  c-0.317,0-0.596-0.225-0.661-0.531c-0.731-3.258-2.513-4.299-7.345-4.299c-5.41,0-6.039,1.885-6.039,3.297
  c0,1.711,0.742,2.209,8.047,3.176c7.229,0.955,10.662,2.309,10.662,7.39C417.825,77.836,413.551,80.771,406.099,80.771"/>
<path fill-rule="evenodd" clip-rule="evenodd" fill="#80bd01" d="M323.735,61.618c0.179-0.104,0.398-0.104,0.577,0l4.787,2.762
  c0.18,0.103,0.289,0.294,0.289,0.5v5.527c0,0.207-0.109,0.397-0.289,0.501l-4.787,2.763c-0.179,0.103-0.398,0.103-0.577,0
  l-4.783-2.763c-0.18-0.104-0.289-0.294-0.289-0.501V64.88c0-0.206,0.109-0.397,0.289-0.5L323.735,61.618z"/>
<path fill-rule="evenodd" clip-rule="evenodd" fill="#46483E" d="M36.28,61.87c1.098,0.65,1.358,0.255,1.742,0.035
  c0.385-0.221,14.695-8.411,15.606-8.857c0.912-0.446,1.315-1.915,0.114-2.61c-1.201-0.697-25.41-14.721-24.241-14.12
  c1.259,0.646-1.202-0.829-2.626-0.175C25.45,36.797,3.644,49.335,2.098,50.218c-1.545,0.883-2.032,1.731-2.027,2.907
  c0.004,1.176-0.078,27.253,0,28.801c0.078,1.548,0.69,2.052,1.506,2.609c0.816,0.558,22.901,13.505,24.572,14.41
  c1.671,0.907,2.768,0.597,3.853-0.04c1.085-0.639,22.727-13.003,23.593-13.554c0.866-0.551,1.653-1.969-0.157-2.992
  c-1.811-1.022-14.779-8.693-15.279-8.943s-0.796-0.255-1.52,0.151c-0.724,0.408-7.222,4.062-8.013,4.524s-0.904,0.254-1.283,0.033
  c-0.378-0.222-7.085-4.135-7.859-4.571s-0.866-0.656-0.868-1.25c-0.001-0.593-0.018-8.121,0.023-8.998
  c0.04-0.877,0.165-1.074,0.962-1.548c0.797-0.474,6.695-3.978,7.166-4.293c0.47-0.315,1.459-0.345,2.231,0.108
  C29.77,58.024,35.182,61.219,36.28,61.87"/>
</svg>
