<?xml version="1.0" encoding="utf-8"?>
<!-- Generator: Adobe Illustrator 16.2.1, SVG Export Plug-In . SVG Version: 6.00 Build 0)  -->
<!DOCTYPE svg PUBLIC "-//W3C//DTD SVG 1.1//EN" "http://www.w3.org/Graphics/SVG/1.1/DTD/svg11.dtd">
<svg version="1.1" id="Layer_1" xmlns="http://www.w3.org/2000/svg" xmlns:xlink="http://www.w3.org/1999/xlink" x="0px" y="0px"
	 width="512px" height="177.846px" viewBox="0 167.078 512 177.846" enable-background="new 0 167.078 512 177.846"
	 xml:space="preserve">
<g>
	<rect x="227.792" y="233.119" fill="#FFFFFF" width="3.677" height="69.596"/>
	<path fill="#FFFFFF" d="M283.729,231.411c-20.879,0-36.633,15.759-36.633,36.506c0,20.879,15.754,36.505,36.633,36.505
		c20.881,0,36.638-15.626,36.638-36.505C320.366,247.17,304.609,231.411,283.729,231.411z M283.729,301.008
		c-18.777,0-32.958-14.182-32.958-33.091c0-18.91,14.18-33.09,32.958-33.09c18.778,0,32.963,14.18,32.963,33.09
		C316.691,286.826,302.508,301.008,283.729,301.008z"/>
	<path fill="#FFFFFF" d="M389.83,238.371c-7.879-6.434-17.332-6.96-22.191-6.96c-11.03,0-23.244,5.123-27.574,15.102h-0.266v-13.394
		h-3.677v69.596h3.677v-40.051c0-17.464,10.77-27.837,28.234-27.837c10.505,0,16.148,3.414,19.695,6.565
		c5.252,4.727,8.536,12.474,8.536,24.553v36.77h3.678v-36.77C399.942,253.472,396.659,244.148,389.83,238.371z"/>
	<rect x="420.295" y="233.119" fill="#FFFFFF" width="3.677" height="69.596"/>
	<path fill="#FFFFFF" d="M476.233,301.008c-17.729,0-32.961-13.395-32.961-33.091c0-9.454,3.938-18.646,9.587-23.769
		c7.221-6.433,13.655-9.321,23.505-9.321c13.655,0,25.737,7.615,30.463,20.876h4.072c-5.515-16.413-20.485-24.292-34.666-24.292
		c-21.143,0-36.639,16.02-36.639,36.638c0,21.667,16.414,36.373,36.639,36.373c16.546,0,29.676-9.454,34.534-23.636h-4.069
		C503.284,291.16,491.99,301.008,476.233,301.008z"/>
	<circle fill="#FFFFFF" cx="229.632" cy="211.546" r="3.969"/>
	<circle fill="#FFFFFF" cx="422.132" cy="211.546" r="3.969"/>
	<circle fill="#FFFFFF" cx="90.024" cy="256" r="36.306"/>
	<path fill="#FFFFFF" d="M164.115,194.395c0-6.897-5.592-12.485-12.486-12.485c-3.129,0-5.98,1.159-8.171,3.06
		c-14.887-11.227-33.397-17.892-53.435-17.892c-49.032,0-88.923,39.891-88.923,88.923c0,49.031,39.891,88.923,88.923,88.923
		c49.032,0,88.922-39.892,88.922-88.923c0-20.039-6.665-38.548-17.892-53.435C162.956,200.375,164.115,197.523,164.115,194.395z
		 M90.023,341.932c-47.382,0-85.931-38.55-85.931-85.932s38.548-85.931,85.931-85.931c19.266,0,37.07,6.374,51.417,17.123
		c-1.442,2.036-2.297,4.517-2.297,7.203c0,6.894,5.59,12.483,12.485,12.483c2.685,0,5.165-0.855,7.202-2.297
		c10.749,14.348,17.123,32.152,17.123,51.419C175.954,303.382,137.406,341.932,90.023,341.932z"/>
</g>
</svg>
